<svg width="108" height="108" viewBox="0 0 108 108" fill="none" xmlns="http://www.w3.org/2000/svg">
<path d="M35.7556 39.4321V38.3807H30.8867C28.7353 38.3807 26.9852 36.6496 26.9852 34.5212V25.2523H35.7556V19.6452H22.6824C21.9276 19.6452 21.3154 20.2508 21.3154 20.9973V34.5212C21.3154 39.7419 25.6092 43.9879 30.8867 43.9879H36.1808C35.9014 42.5105 35.7556 40.9878 35.7556 39.4321Z" fill="#FCDB67"/>
<path d="M82.106 29.3838C81.6808 29.0624 81.3224 28.3423 81.3224 27.81V11.8364H36.9365C36.1505 11.8364 35.5127 12.4676 35.5127 13.2446V39.4321C35.5127 51.7217 44.6077 61.9481 56.4911 63.8753V76.2061H64.6262V63.8753C72.0782 62.6674 78.4327 58.1949 82.1365 51.9977C80.4177 49.7944 79.3918 47.0374 79.3918 44.0464C79.3918 39.3827 81.9396 35.0436 86.0405 32.7225L86.3206 32.5643L82.106 29.3838Z" fill="#FFC502"/>
<path d="M71.8719 75.9614H53.358C54.4325 78.6311 55.0258 81.5438 55.0258 84.5925C55.0258 88.0071 54.2834 91.2511 52.9526 94.1721H75.1349V79.221C75.1349 77.4281 73.6665 75.9614 71.8719 75.9614V75.9614Z" fill="#FCDB67"/>
<path d="M79.1623 93.9611H53.0456C51.7149 96.962 49.7654 99.6309 47.3594 101.803H79.1623C79.7597 101.803 80.2491 101.314 80.2491 100.717V95.0479C80.25 94.4506 79.7597 93.9611 79.1623 93.9611V93.9611Z" fill="#FFC502"/>
<path d="M66.6363 80.3342H54.6318C54.8246 81.3667 54.9491 82.423 54.9993 83.4983H66.6363C67.5097 83.4983 68.2184 82.7905 68.2184 81.9163C68.2184 81.0428 67.5097 80.3342 66.6363 80.3342Z" fill="#775436"/>
<path d="M64.7668 85.9406H56.3499C55.713 85.9406 55.1658 86.3179 54.9145 86.8593C54.8832 87.1856 54.8437 87.5094 54.7983 87.8316C54.9425 88.5575 55.5819 89.1046 56.3491 89.1046H64.7668C65.6402 89.1046 66.3488 88.396 66.3488 87.5226C66.3488 86.6492 65.641 85.9406 64.7668 85.9406Z" fill="#775436"/>
<path d="M66.5163 46.0585C66.2419 46.0585 65.9667 45.9943 65.7145 45.8632L60.5589 43.1944L55.4033 45.8632C55.1512 45.9943 54.8751 46.0585 54.6008 46.0585C54.244 46.0585 53.8888 45.9489 53.5881 45.7339C53.0575 45.3549 52.7913 44.7113 52.9025 44.0744L53.8872 38.4219L49.7162 34.4191C49.2458 33.9684 49.0777 33.2935 49.2804 32.6797C49.4831 32.0658 50.0219 31.6176 50.6712 31.5244L56.4358 30.6996L59.0131 25.5572C59.304 24.978 59.903 24.6113 60.5589 24.6113C61.2148 24.6113 61.8138 24.978 62.1039 25.5572L64.6821 30.6996L70.4466 31.5244C71.0951 31.6176 71.6348 32.0658 71.8375 32.6797C72.0402 33.2935 71.8713 33.9675 71.4016 34.4191L67.2306 38.4219L68.2153 44.0744C68.3257 44.7113 68.0604 45.3549 67.5297 45.7339C67.229 45.9489 66.8739 46.0585 66.5163 46.0585V46.0585Z" fill="#F7931E"/>
<path d="M103.184 18.9613L93.4495 26.3079C92.9716 26.6679 92.1905 26.6679 91.7134 26.3079L81.979 18.9613C81.5019 18.6012 81.1113 17.8176 81.1113 17.2202V27.8108C81.1113 28.4082 81.5019 29.1918 81.979 29.5519L86.1244 32.6797C88.0344 31.6151 90.2368 31.0037 92.5811 31.0037C94.9261 31.0037 97.1286 31.6143 99.0385 32.6797L103.184 29.5519C103.662 29.1918 104.052 28.4082 104.052 27.81V17.2202C104.052 17.8176 103.662 18.6012 103.184 18.9613V18.9613Z" fill="#FB8276"/>
<path d="M81.1113 2.30878C81.1113 1.71057 81.6008 1.22195 82.199 1.22195H102.965C103.563 1.22195 104.052 1.71057 104.052 2.30878V17.4477C104.052 18.045 103.661 18.8286 103.184 19.1887L93.4495 26.5353C92.9716 26.8954 92.1905 26.8954 91.7134 26.5353L81.979 19.1887C81.5019 18.8286 81.1113 18.045 81.1113 17.4477V2.30878Z" fill="#EF5050"/>
<path d="M105.982 44.0464C105.982 51.3666 99.9827 57.3008 92.581 57.3008C85.1808 57.3008 79.1807 51.3666 79.1807 44.0464C79.1807 36.727 85.1808 30.7928 92.581 30.7928C99.9827 30.7928 105.982 36.727 105.982 44.0464V44.0464Z" fill="#C6A07D"/>
<path d="M100.531 44.0464C100.531 48.3887 96.9722 51.9096 92.5812 51.9096C88.1911 51.9096 84.6323 48.3887 84.6323 44.0464C84.6323 39.704 88.1911 36.184 92.5812 36.184C96.9722 36.184 100.531 39.704 100.531 44.0464V44.0464Z" fill="#775436"/>
<path d="M31.8151 61.1851C20.464 61.1851 10.999 69.2575 8.85257 79.9725L10.9109 79.9676C11.458 79.9676 12.249 80.2823 12.642 80.6548L16.1447 83.9745C16.312 84.1336 16.4043 84.3445 16.4043 84.5695C16.4043 84.7944 16.312 85.0053 16.1447 85.1644L12.6198 88.5072C12.2259 88.8813 11.4324 89.1977 10.8886 89.1994L8.8501 89.2043C10.9933 99.9234 20.4607 108 31.8151 108C44.7507 108 55.2366 97.5207 55.2366 84.5925C55.2366 71.6652 44.7507 61.1851 31.8151 61.1851V61.1851Z" fill="#EF5050"/>
<path d="M31.8155 68.4435C23.3698 68.4435 16.4237 74.957 15.7241 83.2214H31.593C32.3486 83.2214 32.9641 83.8369 32.9641 84.5925C32.9641 85.3489 32.3486 85.9636 31.593 85.9636H15.7241C16.4237 94.2281 23.3698 100.742 31.8155 100.742C40.726 100.742 47.9745 93.4972 47.9745 84.5925C47.9745 75.6878 40.726 68.4435 31.8155 68.4435V68.4435Z" fill="white"/>
<path d="M31.8152 75.701C27.3773 75.701 23.6875 78.9673 23.0259 83.2214H31.5919C32.3483 83.2214 32.963 83.8361 32.963 84.5925C32.963 85.3481 32.3483 85.9636 31.5919 85.9636H23.0259C23.6875 90.2178 27.3773 93.484 31.8152 93.484C36.722 93.484 40.7117 89.4952 40.7117 84.5925C40.7117 79.6899 36.722 75.701 31.8152 75.701V75.701Z" fill="#EF5050"/>
<path d="M31.8152 81.3774C30.5331 81.3774 29.4273 82.133 28.9106 83.2214H31.5919C32.3483 83.2214 32.963 83.8361 32.963 84.5925C32.963 85.3481 32.3483 85.9636 31.5919 85.9636H28.9106C29.4265 87.0513 30.5331 87.8077 31.8152 87.8077C33.5892 87.8077 35.032 86.3657 35.032 84.5925C35.032 82.8202 33.5892 81.3774 31.8152 81.3774Z" fill="white"/>
<path d="M31.5929 83.0105H15.1282L16.145 83.9745C16.3123 84.1336 16.4045 84.3445 16.4045 84.5695C16.4045 84.7944 16.3123 85.0053 16.145 85.1644L15.0796 86.1746H31.592C32.4663 86.1746 33.1741 85.4659 33.1741 84.5925C33.1749 83.7191 32.4663 83.0105 31.5929 83.0105Z" fill="#08375E"/>
<path d="M2.88113 89.4284C2.28292 89.4301 2.14038 89.0865 2.56472 88.6646L5.89441 85.358C6.31875 84.937 6.31875 84.2481 5.89441 83.8262L2.58697 80.5427C2.16262 80.1216 2.30517 79.7756 2.90338 79.7739L10.9108 79.7566C11.5081 79.755 12.3527 80.0903 12.787 80.5015L16.2897 83.8213C16.7239 84.2325 16.7239 84.9056 16.2897 85.3168L12.7647 88.6597C12.3313 89.0708 11.4867 89.4087 10.8885 89.4103L2.88113 89.4284Z" fill="#75EAE7"/>
<path d="M86.5644 86.6C86.2471 86.6 85.9604 86.4088 85.8384 86.1155C84.3446 82.5089 83.2421 81.4073 79.6331 79.9134C79.3406 79.7923 79.1494 79.5056 79.1494 79.1891C79.1494 78.8719 79.3406 78.586 79.6331 78.4641C83.2421 76.9702 84.3446 75.8685 85.8384 72.262C85.9604 71.9687 86.2471 71.7775 86.5644 71.7775C86.8816 71.7775 87.1675 71.9687 87.2895 72.262C88.7841 75.8685 89.8866 76.9702 93.4948 78.4641C93.7881 78.586 93.9793 78.8719 93.9793 79.1891C93.9793 79.5064 93.7881 79.7923 93.4948 79.9134C89.8866 81.4073 88.7841 82.5089 87.2895 86.1155C87.1675 86.4088 86.8816 86.6 86.5644 86.6Z" fill="#21B1E6"/>
<path d="M20.7598 12.1792C20.4986 12.1792 20.2629 12.0218 20.1632 11.7812C18.9355 8.81735 18.03 7.91263 15.0645 6.68491C14.8239 6.58521 14.6665 6.35037 14.6665 6.08917C14.6665 5.8288 14.8239 5.59396 15.0645 5.49426C18.03 4.26654 18.9355 3.36099 20.1632 0.39798C20.2638 0.157379 20.4986 0 20.7598 0C21.0202 0 21.2558 0.157379 21.3547 0.39798C22.5833 3.36099 23.4888 4.26654 26.4543 5.49426C26.6957 5.59396 26.8523 5.8288 26.8523 6.08917C26.8523 6.35037 26.6957 6.58521 26.4543 6.68491C23.4888 7.91263 22.5833 8.81735 21.3547 11.7812C21.2558 12.0218 21.0202 12.1792 20.7598 12.1792Z" fill="#666666"/>
<path d="M100.427 100.179C100.166 100.179 99.9299 100.022 99.8302 99.7812C98.6025 96.8174 97.697 95.9126 94.7315 94.6849C94.4909 94.5852 94.3335 94.3504 94.3335 94.0892C94.3335 93.8288 94.4909 93.594 94.7315 93.4943C97.697 92.2665 98.6025 91.361 99.8302 88.398C99.9308 88.1574 100.166 88 100.427 88C100.687 88 100.923 88.1574 101.022 88.398C102.25 91.361 103.156 92.2665 106.121 93.4943C106.363 93.594 106.519 93.8288 106.519 94.0892C106.519 94.3504 106.363 94.5852 106.121 94.6849C103.156 95.9126 102.25 96.8174 101.022 99.7812C100.923 100.022 100.687 100.179 100.427 100.179Z" fill="#4E00CC"/>
<ellipse cx="5.3335" cy="49" rx="4" ry="4" fill="#DE0085"/>
</svg>
