<svg width="183" height="59" viewBox="0 0 183 59" fill="none" xmlns="http://www.w3.org/2000/svg">
<path d="M76.648 21.308V26.852H87.772V32.36H76.648V41H69.52V15.8H89.284V21.308H76.648ZM102.384 41.324C100.296 41.324 98.4118 40.892 96.7318 40.028C95.0518 39.164 93.7318 37.964 92.7718 36.428C91.8358 34.892 91.3678 33.152 91.3678 31.208C91.3678 29.288 91.8358 27.56 92.7718 26.024C93.7318 24.488 95.0398 23.3 96.6958 22.46C98.3758 21.596 100.272 21.164 102.384 21.164C104.496 21.164 106.392 21.596 108.072 22.46C109.752 23.3 111.06 24.488 111.996 26.024C112.932 27.536 113.4 29.264 113.4 31.208C113.4 33.152 112.932 34.892 111.996 36.428C111.06 37.964 109.752 39.164 108.072 40.028C106.392 40.892 104.496 41.324 102.384 41.324ZM102.384 35.888C103.584 35.888 104.568 35.48 105.336 34.664C106.104 33.824 106.488 32.672 106.488 31.208C106.488 29.768 106.104 28.64 105.336 27.824C104.568 27.008 103.584 26.6 102.384 26.6C101.184 26.6 100.2 27.008 99.4318 27.824C98.6638 28.64 98.2798 29.768 98.2798 31.208C98.2798 32.672 98.6638 33.824 99.4318 34.664C100.2 35.48 101.184 35.888 102.384 35.888ZM127.26 41.324C125.1 41.324 123.168 40.892 121.464 40.028C119.76 39.164 118.428 37.964 117.468 36.428C116.532 34.892 116.064 33.152 116.064 31.208C116.064 29.264 116.532 27.536 117.468 26.024C118.428 24.488 119.76 23.3 121.464 22.46C123.168 21.596 125.1 21.164 127.26 21.164C129.468 21.164 131.376 21.644 132.984 22.604C134.592 23.54 135.732 24.848 136.404 26.528L131.112 29.228C130.224 27.476 128.928 26.6 127.224 26.6C126 26.6 124.98 27.008 124.164 27.824C123.372 28.64 122.976 29.768 122.976 31.208C122.976 32.672 123.372 33.824 124.164 34.664C124.98 35.48 126 35.888 127.224 35.888C128.928 35.888 130.224 35.012 131.112 33.26L136.404 35.96C135.732 37.64 134.592 38.96 132.984 39.92C131.376 40.856 129.468 41.324 127.26 41.324ZM160.22 21.488V41H153.704V38.912C152.984 39.704 152.12 40.304 151.112 40.712C150.104 41.12 149.036 41.324 147.908 41.324C145.388 41.324 143.372 40.58 141.86 39.092C140.372 37.604 139.628 35.372 139.628 32.396V21.488H146.468V31.28C146.468 32.744 146.744 33.812 147.296 34.484C147.848 35.156 148.652 35.492 149.708 35.492C150.788 35.492 151.664 35.12 152.336 34.376C153.032 33.608 153.38 32.444 153.38 30.884V21.488H160.22ZM172.438 41.324C170.806 41.324 169.198 41.144 167.614 40.784C166.03 40.4 164.758 39.908 163.798 39.308L165.85 34.628C166.738 35.18 167.794 35.624 169.018 35.96C170.242 36.272 171.454 36.428 172.654 36.428C173.758 36.428 174.538 36.32 174.994 36.104C175.474 35.864 175.714 35.528 175.714 35.096C175.714 34.664 175.426 34.364 174.85 34.196C174.298 34.004 173.41 33.824 172.186 33.656C170.626 33.464 169.294 33.212 168.19 32.9C167.11 32.588 166.174 32.012 165.382 31.172C164.59 30.332 164.194 29.156 164.194 27.644C164.194 26.396 164.566 25.292 165.31 24.332C166.054 23.348 167.134 22.58 168.55 22.028C169.99 21.452 171.706 21.164 173.698 21.164C175.114 21.164 176.518 21.308 177.91 21.596C179.302 21.884 180.466 22.292 181.402 22.82L179.35 27.464C177.622 26.504 175.75 26.024 173.734 26.024C172.654 26.024 171.862 26.156 171.358 26.42C170.854 26.66 170.602 26.984 170.602 27.392C170.602 27.848 170.878 28.172 171.43 28.364C171.982 28.532 172.894 28.712 174.166 28.904C175.774 29.144 177.106 29.42 178.162 29.732C179.218 30.044 180.13 30.62 180.898 31.46C181.69 32.276 182.086 33.428 182.086 34.916C182.086 36.14 181.714 37.244 180.97 38.228C180.226 39.188 179.122 39.944 177.658 40.496C176.218 41.048 174.478 41.324 172.438 41.324Z" fill="#DE0085"/>
<path d="M55.0656 26.4298H53.4272C52.7606 21.1501 50.3795 16.2682 46.5557 12.4444C42.7318 8.62045 37.8499 6.23948 32.5702 5.57285V3.93445C32.5702 2.23877 31.1957 0.864258 29.5 0.864258C27.8043 0.864258 26.4298 2.23877 26.4298 3.93445V5.57285C21.1501 6.23948 16.2682 8.62045 12.4444 12.4444C8.62057 16.2683 6.23937 21.1501 5.57285 26.4298H3.93445C2.23877 26.4298 0.864258 27.8043 0.864258 29.5C0.864258 31.1956 2.23877 32.5702 3.93445 32.5702H5.57285C6.23948 37.8498 8.62045 42.7318 12.4444 46.5556C16.2683 50.3794 21.1502 52.7605 26.4298 53.4272V55.0656C26.4298 56.7611 27.8043 58.1357 29.5 58.1357C31.1957 58.1357 32.5702 56.7611 32.5702 55.0656V53.4272C37.8499 52.7605 42.7318 50.3795 46.5557 46.5556C50.3797 42.7317 52.7606 37.8498 53.4272 32.5702H55.0656C56.7612 32.5702 58.1357 31.1956 58.1357 29.5C58.1357 27.8043 56.7612 26.4298 55.0656 26.4298V26.4298ZM32.5702 49.0417V46.3274C32.5702 44.6318 31.1957 43.2571 29.5 43.2571C27.8043 43.2571 26.4298 44.6318 26.4298 46.3274V49.0417C17.9766 47.7187 11.2813 41.0234 9.95832 32.5702H12.6726C14.3681 32.5702 15.7427 31.1956 15.7427 29.5C15.7427 27.8043 14.3681 26.4298 12.6726 26.4298H9.95832C11.2813 17.9766 17.9766 11.2813 26.4298 9.95832V12.6726C26.4298 14.3682 27.8043 15.7427 29.5 15.7427C31.1957 15.7427 32.5702 14.3682 32.5702 12.6726V9.95832C41.0234 11.2813 47.7187 17.9766 49.0417 26.4298H46.3274C44.6319 26.4298 43.2573 27.8043 43.2573 29.5C43.2573 31.1956 44.6319 32.5702 46.3274 32.5702H49.0417C47.7187 41.0234 41.0234 47.7187 32.5702 49.0417Z" fill="#4E00CC"/>
<path d="M51.3444 32.5702H49.0418C47.8415 40.2397 42.2187 46.4619 34.873 48.5378V49.0416C43.3262 47.7187 50.0214 41.0234 51.3444 32.5702V32.5702Z" fill="#1C0056" fill-opacity="0.8"/>
<path d="M26.4299 9.95831V12.6725C26.4299 14.3682 27.8044 15.7427 29.5001 15.7427C29.9074 15.7427 30.2958 15.6628 30.6514 15.5187C29.5265 15.0632 28.7325 13.9609 28.7325 12.6725V9.95831H26.4299Z" fill="#1C0056" fill-opacity="0.8"/>
<path d="M48.6301 26.4298H46.3275C44.632 26.4298 43.2573 27.8043 43.2573 29.5C43.2573 31.1956 44.632 32.5702 46.3275 32.5702H48.6301C46.9345 32.5702 45.5599 31.1956 45.5599 29.5C45.5599 27.8043 46.9345 26.4298 48.6301 26.4298Z" fill="#1C0056" fill-opacity="0.8"/>
<path d="M28.7324 55.0656V53.4272C23.4527 52.7605 18.5708 50.3795 14.747 46.5556C10.9231 42.7317 8.54209 37.8498 7.87546 32.5702H6.23706C4.54139 32.5702 3.16687 31.1956 3.16687 29.5C3.16687 27.8043 4.54139 26.4298 6.23706 26.4298H7.87546C8.54198 21.1501 10.9231 16.2682 14.747 12.4444C18.5709 8.62045 23.4528 6.23948 28.7324 5.57285V3.93445C28.7324 2.64613 29.5263 1.54379 30.6513 1.08827C30.2957 0.94423 29.9072 0.864258 29.5 0.864258C27.8043 0.864258 26.4298 2.23877 26.4298 3.93445V5.57285C21.1501 6.23948 16.2682 8.62045 12.4444 12.4444C8.62057 16.2683 6.23937 21.1501 5.57285 26.4298H3.93445C2.23877 26.4298 0.864258 27.8043 0.864258 29.5C0.864258 31.1956 2.23877 32.5702 3.93445 32.5702H5.57285C6.23948 37.8498 8.62045 42.7318 12.4444 46.5556C16.2683 50.3794 21.1502 52.7605 26.4298 53.4272V55.0656C26.4298 56.7611 27.8043 58.1357 29.5 58.1357C29.9072 58.1357 30.2957 58.0558 30.6513 57.9117C29.5264 57.4562 28.7324 56.354 28.7324 55.0656V55.0656Z" fill="#1C0056" fill-opacity="0.8"/>
<path d="M28.7325 46.3275C28.7325 45.0391 29.5264 43.9368 30.6514 43.4813C30.2958 43.3372 29.9074 43.2573 29.5001 43.2573C27.8044 43.2573 26.4299 44.6319 26.4299 46.3276V49.0418H28.7325V46.3275Z" fill="#1C0056" fill-opacity="0.8"/>
<path d="M34.8728 9.95831V10.4621C42.2184 12.5379 47.8413 18.7601 49.0416 26.4297H51.3442C50.0213 17.9766 43.3261 11.2813 34.8728 9.95831Z" fill="#1C0056" fill-opacity="0.8"/>
<path d="M28.6019 38.8826C27.5638 38.8826 26.5777 38.4035 25.9361 37.5759L20.2952 30.2996C19.1536 28.8271 19.4219 26.7079 20.8944 25.5663C22.3671 24.4247 24.4861 24.6931 25.6276 26.1655L28.1599 29.432L33.1015 20.6819C34.0178 19.0595 36.0755 18.4871 37.6981 19.4033C39.3205 20.3196 39.8928 22.3775 38.9766 23.9998L31.54 37.1679C30.9846 38.1514 29.9738 38.7916 28.8474 38.8736C28.7653 38.8796 28.6834 38.8826 28.6019 38.8826V38.8826Z" fill="#DE0085"/>
<path d="M38.8904 20.5369C38.8432 20.5055 38.7937 20.4762 38.7442 20.4481C37.1215 19.5316 35.0636 20.104 34.147 21.7267L29.2058 30.4768L28.1599 29.431L33.1012 20.6809C34.0176 19.0581 36.0756 18.4858 37.6983 19.4022C38.2021 19.6869 38.6036 20.0804 38.8904 20.5369V20.5369Z" fill="#4E00CC"/>
<path d="M31.0195 37.86C30.4517 38.4459 29.6813 38.8125 28.8469 38.8733C28.7649 38.8789 28.6827 38.8823 28.6018 38.8823C27.5627 38.8823 26.5776 38.4032 25.9355 37.5755L20.2948 30.2986C19.1534 28.8266 19.421 26.7079 20.8941 25.5653C21.3294 25.2269 21.823 25.0131 22.3302 24.9176C21.1741 26.1029 21.0392 27.9898 22.0828 29.3359L27.7235 36.6128C28.3656 37.4404 29.3519 37.9196 30.3898 37.9196C30.4708 37.9196 30.5528 37.9163 30.6349 37.9106C30.7653 37.9016 30.8936 37.8848 31.0195 37.86Z" fill="#4E00CC"/>
<path d="M29.5 59C27.3307 59 25.5659 57.2352 25.5659 55.0659V54.1777C20.3461 53.3586 15.612 50.9447 11.8332 47.167C8.05534 43.3882 5.64141 38.6539 4.82233 33.4341H3.9341C2.88282 33.4341 1.8948 33.025 1.15188 32.2821C0.409082 31.5393 0 30.5513 0 29.5C0 27.3307 1.76481 25.5659 3.9341 25.5659H4.82233C5.64141 20.3461 8.05534 15.612 11.833 11.8332C15.6118 8.05534 20.3461 5.64141 25.5659 4.82233V3.9341C25.5659 1.76481 27.3307 0 29.5 0C31.6692 0 33.4341 1.76481 33.4341 3.9341V4.82233C38.654 5.64141 43.3882 8.05534 47.1669 11.833C47.5811 12.2471 47.9845 12.6795 48.3659 13.1179C48.6793 13.478 48.6414 14.0239 48.2812 14.3372C47.9211 14.6503 47.3752 14.6128 47.062 14.2524C46.7066 13.844 46.3307 13.4412 45.9449 13.0554C42.2584 9.36994 37.5959 7.07896 32.4615 6.43019C32.0295 6.37557 31.7056 6.00809 31.7056 5.57273V3.9341C31.7056 2.71792 30.7162 1.72852 29.5 1.72852C28.2838 1.72852 27.2944 2.71792 27.2944 3.9341V5.57273C27.2944 6.00809 26.9705 6.37557 26.5385 6.43019C21.4042 7.07896 16.7417 9.36994 13.0552 13.0555C9.36994 16.7418 7.07896 21.4043 6.43019 26.5386C6.37557 26.9706 6.00809 27.2945 5.57273 27.2945H3.9341C2.71792 27.2944 1.72852 28.2838 1.72852 29.5C1.72852 30.0895 1.95783 30.6435 2.37417 31.0599C2.79063 31.4763 3.34456 31.7057 3.9341 31.7057H5.57273C6.00809 31.7057 6.37557 32.0296 6.43019 32.4616C7.07896 37.5959 9.36994 42.2584 13.0555 45.9449C16.7418 49.6302 21.4043 51.9212 26.5386 52.5699C26.9706 52.6245 27.2945 52.992 27.2945 53.4274V55.066C27.2945 56.2822 28.2839 57.2716 29.5001 57.2716C30.7163 57.2716 31.7057 56.2822 31.7057 55.066V53.4274C31.7057 52.992 32.0296 52.6245 32.4616 52.5699C37.596 51.9212 42.2585 49.6302 45.945 45.9446C49.6302 42.2584 51.9212 37.5959 52.57 32.4615C52.6247 32.0295 52.992 31.7056 53.4274 31.7056H55.0661C56.2823 31.7056 57.2717 30.7162 57.2717 29.5C57.2717 28.9105 57.0424 28.3565 56.6259 27.9401C56.2096 27.5237 55.6556 27.2943 55.0661 27.2943H53.4273C52.9919 27.2943 52.6244 26.9704 52.5699 26.5384C52.1316 23.0699 50.9508 19.8288 49.0602 16.905C48.8011 16.5042 48.9158 15.9692 49.3167 15.71C49.7176 15.4509 50.2527 15.5656 50.5117 15.9665C52.4063 18.8966 53.6379 22.1222 54.1778 25.5658H55.066C56.1172 25.5658 57.1052 25.9749 57.8482 26.7178C58.5909 27.4608 59 28.4488 59 29.5C59 31.6693 57.2352 33.4341 55.0659 33.4341H54.1776C53.3585 38.654 50.9445 43.3882 47.1669 47.1668C43.3882 50.9447 38.6539 53.3585 33.434 54.1777V55.0659C33.4341 57.2352 31.6692 59 29.5 59V59ZM32.5702 49.9059C32.3656 49.9059 32.1659 49.8332 32.0083 49.6984C31.8164 49.5342 31.7059 49.2943 31.7059 49.0417V46.3274C31.7059 45.111 30.7164 44.1214 29.5 44.1214C28.2836 44.1214 27.2941 45.111 27.2941 46.3274V49.0417C27.2941 49.2942 27.1837 49.5342 26.9917 49.6984C26.7998 49.8626 26.5459 49.9346 26.2961 49.8956C21.9664 49.218 18.0289 47.2108 14.9091 44.091C11.7894 40.9711 9.78213 37.0336 9.10455 32.704C9.06549 32.4544 9.13751 32.2003 9.30172 32.0084C9.46593 31.8164 9.70585 31.706 9.95844 31.706H12.6727C13.8891 31.706 14.8786 30.7165 14.8786 29.5001C14.8786 28.2837 13.8891 27.2942 12.6727 27.2942H9.95832C9.70585 27.2942 9.46581 27.1838 9.3016 26.9918C9.13739 26.7999 9.06537 26.5459 9.10444 26.2963C9.78202 21.9666 11.7892 18.029 14.909 14.9093C18.0289 11.7895 21.9664 9.78225 26.296 9.10467C26.5456 9.06549 26.7997 9.13774 26.9916 9.30183C27.1836 9.46604 27.294 9.70596 27.294 9.95855V12.6728C27.294 13.8892 28.2835 14.8787 29.4999 14.8787C30.7163 14.8787 31.7058 13.8892 31.7058 12.6728V9.95832C31.7058 9.70585 31.8163 9.46581 32.0082 9.3016C32.2002 9.13739 32.4543 9.06526 32.7037 9.10444C37.0333 9.78202 40.9709 11.7892 44.0906 14.909C47.2105 18.0289 49.2176 21.9664 49.8953 26.296C49.9344 26.5456 49.8623 26.7997 49.6981 26.9916C49.5338 27.1836 49.2939 27.294 49.0414 27.294H46.3272C45.1108 27.294 44.1213 28.2835 44.1213 29.4999C44.1213 30.7163 45.1108 31.7058 46.3272 31.7058H49.0414C49.2939 31.7058 49.5338 31.8162 49.6981 32.0082C49.8623 32.2001 49.9344 32.4541 49.8953 32.7037C49.2176 37.0334 47.2105 40.971 44.0906 44.0907C40.9709 47.2106 37.0333 49.2178 32.7037 49.8953C32.6593 49.9025 32.6146 49.9059 32.5702 49.9059V49.9059ZM29.5 42.3929C31.6694 42.3929 33.4344 44.1579 33.4344 46.3274V48.0043C37.0067 47.2489 40.2511 45.4861 42.8686 42.8687C45.4861 40.2511 47.2489 37.0068 48.0042 33.4344H46.3273C44.1579 33.4344 42.3929 31.6695 42.3929 29.5C42.3929 27.3305 44.1578 25.5656 46.3273 25.5656H48.0042C47.2487 21.9933 45.486 18.7489 42.8686 16.1313C40.2511 13.5139 37.0067 11.7511 33.4344 10.9957V12.6726C33.4344 14.8421 31.6695 16.607 29.5 16.607C27.3305 16.607 25.5656 14.8421 25.5656 12.6726V10.9957C21.9933 11.7511 18.7489 13.5139 16.1313 16.1313C13.5139 18.7489 11.7511 21.9932 10.9957 25.5656H12.6726C14.8421 25.5656 16.607 27.3305 16.607 29.5C16.607 31.6695 14.8421 33.4344 12.6726 33.4344H10.9957C11.7511 37.0067 13.5139 40.2511 16.1313 42.8687C18.7489 45.4861 21.9932 47.2489 25.5656 48.0043V46.3274C25.5656 44.1579 27.3305 42.3929 29.5 42.3929Z" fill="#4400B2"/>
<path d="M28.6013 39.7455C27.2815 39.7455 26.061 39.1471 25.2527 38.1037L23.0599 35.275C22.7674 34.8978 22.8362 34.3548 23.2135 34.0625C23.5906 33.77 24.1336 33.8388 24.426 34.2161L26.6189 37.0451C27.0974 37.6628 27.82 38.0171 28.6013 38.0171C28.6689 38.0171 28.7292 38.0151 28.7856 38.0111C29.6242 37.9493 30.3733 37.4748 30.7871 36.7418L38.2233 23.5737C38.5534 22.9898 38.6362 22.3128 38.4566 21.667C38.2769 21.0213 37.8565 20.4842 37.2729 20.1546C36.6893 19.825 36.0121 19.7424 35.3663 19.9222C34.7206 20.1019 34.1832 20.5223 33.8538 21.106L28.9125 29.8557C28.7702 30.1076 28.5114 30.2716 28.2228 30.2927C27.9346 30.3139 27.6544 30.189 27.477 29.9605L24.9442 26.6947C24.5336 26.1645 23.9414 25.8265 23.2766 25.7423C22.6118 25.6585 21.9538 25.8381 21.424 26.2489C20.894 26.6593 20.5559 27.2515 20.4717 27.9163C20.3875 28.5812 20.5673 29.2391 20.9782 29.7689L22.314 31.4931C22.6063 31.8704 22.5374 32.4132 22.1601 32.7056C21.783 32.9979 21.24 32.929 20.9476 32.5517L19.612 30.8278C18.9185 29.9334 18.6147 28.8222 18.7569 27.6991C18.8991 26.576 19.4703 25.5758 20.3652 24.8825C21.2597 24.1891 22.3708 23.8855 23.4938 24.0275C24.6169 24.1697 25.6171 24.7408 26.3104 25.6358L28.0465 27.8743L32.3487 20.2561C32.9051 19.2704 33.8123 18.5604 34.903 18.2569C35.9935 17.9533 37.1371 18.0927 38.1227 18.6494C39.1086 19.206 39.8186 20.1132 40.1219 21.2038C40.4253 22.2947 40.2856 23.4383 39.7283 24.4239L32.2922 37.5915C31.5937 38.8292 30.3292 39.6307 28.9101 39.7351C28.8103 39.7421 28.71 39.7455 28.6013 39.7455V39.7455Z" fill="#1C0056" fill-opacity="0.8"/>
</svg>
