<svg width="108" height="108" viewBox="0 0 108 108" fill="none" xmlns="http://www.w3.org/2000/svg">
<g clip-path="url(#clip0)">
<path d="M79.5781 64.4849H33.0435V47.0889C33.0435 45.2066 34.5693 43.6808 36.4515 43.6808H76.1703C78.0525 43.6808 79.5783 45.2066 79.5783 47.0889V64.4849H79.5781Z" fill="#75EAE7"/>
<path d="M39.1727 52.7207C39.1727 50.8385 40.6985 49.3127 42.5807 49.3127H79.5778V47.0889C79.5778 45.2066 78.052 43.6808 76.1698 43.6808H36.451C34.5688 43.6808 33.043 45.2066 33.043 47.0889V64.4849H39.1727V52.7207Z" fill="#21B3E7"/>
<path d="M90.4099 78.973H22.2114V63.7574C22.2114 61.5248 24.0215 59.7147 26.2542 59.7147H86.3671C88.5998 59.7147 90.4099 61.5248 90.4099 63.7574V78.973Z" fill="#75EAE7"/>
<path d="M29.9478 68.8331C29.9478 66.6005 31.7579 64.7904 33.9905 64.7904H90.4099V63.7572C90.4099 61.5245 88.5998 59.7145 86.3671 59.7145H26.2542C24.0215 59.7145 22.2114 61.5245 22.2114 63.7572V78.9728H29.9478V68.8331Z" fill="#21B3E7"/>
<path d="M57.6934 0.785356L62.6256 10.7789C62.8307 11.1948 63.2275 11.4829 63.6863 11.5495L74.715 13.1521C75.8704 13.3199 76.3318 14.7401 75.4958 15.5549L67.5155 23.3338C67.1835 23.6575 67.0319 24.1237 67.1102 24.5808L68.9942 35.5648C69.1915 36.7157 67.9836 37.5932 66.9502 37.0498L57.0859 31.8638C56.6754 31.648 56.1852 31.648 55.7747 31.8638L45.9104 37.0498C44.8768 37.5932 43.6689 36.7155 43.8664 35.5648L45.7504 24.5808C45.8287 24.1237 45.6773 23.6575 45.3452 23.3338L37.3644 15.5551C36.5284 14.7401 36.9898 13.3201 38.1452 13.1523L49.1739 11.5497C49.6327 11.4829 50.0295 11.1948 50.2346 10.7791L55.1668 0.785573C55.6835 -0.261699 57.1765 -0.261699 57.6934 0.785356V0.785356Z" fill="#FFB65B"/>
<path d="M68.994 35.5652L68.7065 33.8883L57.5308 28.0129C57.0484 27.7592 56.4718 27.7592 55.9894 28.0129L49.9831 31.1706C49.3948 31.4798 48.7073 30.9804 48.8196 30.3254L50.2272 22.1178C50.3055 21.6608 50.1542 21.1946 49.822 20.8709L45.9267 17.074C45.1964 16.3622 45.5995 15.1221 46.6086 14.9756L52.9668 14.0517C53.4256 13.9849 53.8224 13.6967 54.0276 13.2811L58.9437 3.31984L57.6934 0.785353C57.1767 -0.261703 55.6835 -0.261703 55.1668 0.785353L50.2346 10.7789C50.0293 11.1948 49.6327 11.4829 49.1739 11.5495L38.1452 13.1521C36.9898 13.3199 36.5284 14.7399 37.3644 15.5551L45.3447 23.334C45.6767 23.6575 45.8283 24.1239 45.75 24.581L43.8662 35.565C43.6689 36.7159 44.8768 37.5936 45.9104 37.0502L55.7747 31.8644C56.1852 31.6487 56.6754 31.6487 57.0859 31.8644L66.9502 37.0505C67.9834 37.5936 69.1913 36.7159 68.994 35.5652V35.5652Z" fill="#FFB65B"/>
<path d="M97.2896 97.426H15.5488V77.9231C15.5488 75.9884 17.1174 74.4199 19.0521 74.4199H93.7863C95.7211 74.4199 97.2896 75.9884 97.2896 77.9231V97.426Z" fill="#75EAE7"/>
<path d="M23.5445 83.1172C23.5445 81.1825 25.113 79.6139 27.0478 79.6139H97.2896V77.9231C97.2896 75.9884 95.7211 74.4199 93.7863 74.4199H19.0521C17.1174 74.4199 15.5488 75.9884 15.5488 77.9231V97.426H23.5445V83.1172Z" fill="#21B3E7"/>
<path d="M101.395 108H11.4432C10.0844 108 8.98291 106.899 8.98291 105.54V93.3358C8.98291 91.0442 10.8407 89.1866 13.1321 89.1866H99.7064C101.998 89.1866 103.856 91.0444 103.856 93.3358V105.54C103.856 106.898 102.754 108 101.395 108Z" fill="#75EAE7"/>
<path d="M18.53 98.5004C18.53 96.209 20.3878 94.3512 22.6792 94.3512H103.856V93.3358C103.856 91.0442 101.998 89.1866 99.7064 89.1866H13.1321C10.8405 89.1866 8.98291 91.0442 8.98291 93.3358V105.54C8.98291 106.899 10.0844 108 11.4432 108H18.53V98.5004Z" fill="#21B3E7"/>
<path d="M56.4189 25.9865C55.5208 25.9865 54.7927 25.2586 54.7927 24.3603V16.9736H54.4924C53.5943 16.9736 52.8662 16.2457 52.8662 15.3474C52.8662 14.4491 53.5943 13.7212 54.4924 13.7212H56.4189C57.3172 13.7212 58.0451 14.4491 58.0451 15.3474V24.3603C58.0451 25.2586 57.3172 25.9865 56.4189 25.9865V25.9865Z" fill="#4E00CC"/>
<path d="M84.3578 10.9168C83.9417 10.9168 83.5254 10.7581 83.2078 10.4406C82.5727 9.80534 82.5727 8.77584 83.2078 8.14076L85.9073 5.44127C86.5426 4.8064 87.572 4.8064 88.2071 5.44127C88.8422 6.07657 88.8422 7.10606 88.2071 7.74115L85.5076 10.4406C85.1902 10.7581 84.7739 10.9168 84.3578 10.9168V10.9168Z" fill="#FFB65B"/>
<path d="M87.0573 35.8874C86.6412 35.8874 86.2249 35.7287 85.9073 35.4112L83.2078 32.7118C82.5727 32.0765 82.5727 31.047 83.2078 30.4119C83.8431 29.777 84.8726 29.777 85.5076 30.4119L88.2071 33.1114C88.8422 33.7467 88.8422 34.7762 88.2071 35.4112C87.8897 35.7287 87.4734 35.8874 87.0573 35.8874Z" fill="#FFB65B"/>
<path d="M89.1944 22.0523H84.3576C83.4593 22.0523 82.7314 21.3245 82.7314 20.4261C82.7314 19.5278 83.4593 18.7999 84.3576 18.7999H89.1944C90.0927 18.7999 90.8206 19.5278 90.8206 20.4261C90.8206 21.3245 90.0927 22.0523 89.1944 22.0523Z" fill="#FFB65B"/>
<path d="M28.4804 10.9168C28.0643 10.9168 27.648 10.7581 27.3306 10.4406L24.6311 7.74115C23.996 7.10585 23.996 6.07635 24.6311 5.44127C25.2662 4.8064 26.2959 4.8064 26.9308 5.44127L29.6303 8.14076C30.2653 8.77606 30.2653 9.80555 29.6303 10.4406C29.3128 10.7581 28.8967 10.9168 28.4804 10.9168Z" fill="#FFB65B"/>
<path d="M25.7809 35.8874C25.3648 35.8874 24.9485 35.7287 24.6311 35.4112C23.996 34.7759 23.996 33.7465 24.6311 33.1114L27.3306 30.4119C27.9657 29.777 28.9954 29.777 29.6303 30.4119C30.2653 31.0472 30.2653 32.0767 29.6303 32.7118L26.9308 35.4112C26.6133 35.7287 26.1972 35.8874 25.7809 35.8874V35.8874Z" fill="#FFB65B"/>
<path d="M28.48 22.0523H23.6433C22.7452 22.0523 22.0171 21.3245 22.0171 20.4261C22.0171 19.5278 22.7452 18.7999 23.6433 18.7999H28.48C29.3781 18.7999 30.1062 19.5278 30.1062 20.4261C30.1062 21.3245 29.3781 22.0523 28.48 22.0523Z" fill="#FFB65B"/>
<path d="M100.59 59.5526V52.3457C100.59 52.1234 100.77 51.9435 100.993 51.9435H104.575C104.92 51.9435 105.105 51.5369 104.878 51.2767L97.5929 42.9302C97.4327 42.7465 97.1471 42.7465 96.9869 42.9302L89.7015 51.2767C89.4745 51.5369 89.6592 51.9435 90.0046 51.9435H93.587C93.8093 51.9435 93.9892 52.1236 93.9892 52.3457V59.5526C93.9892 59.952 94.3132 60.2759 94.7126 60.2759H99.867C100.266 60.2759 100.59 59.952 100.59 59.5526V59.5526Z" fill="#FFB65B"/>
<path d="M14.0112 59.6497V52.3457C14.0112 52.1234 14.1914 51.9435 14.4134 51.9435H17.9958C18.3412 51.9435 18.526 51.5369 18.299 51.2767L11.0138 42.9302C10.8536 42.7465 10.568 42.7465 10.4078 42.9302L3.1224 51.2767C2.89538 51.5369 3.08012 51.9435 3.42552 51.9435H7.00793C7.23018 51.9435 7.41014 52.1236 7.41014 52.3457V59.6497C7.41014 59.9955 7.6905 60.2759 8.03634 60.2759H13.385C13.7309 60.2759 14.0112 59.9955 14.0112 59.6497Z" fill="#FFB65B"/>
</g>
<defs>
<clipPath id="clip0">
<rect width="108" height="108" fill="white"/>
</clipPath>
</defs>
</svg>
