<svg width="1274" height="700" viewBox="0 0 1274 700" fill="none" xmlns="http://www.w3.org/2000/svg">
<g opacity="0.2">
<path opacity="0.49" d="M271.103 16.3742C275.349 16.3742 278.79 12.9325 278.79 8.68709C278.79 4.44163 275.349 1 271.103 1C266.858 1 263.416 4.44163 263.416 8.68709C263.416 12.9325 266.858 16.3742 271.103 16.3742Z" stroke="white" stroke-width="2" stroke-miterlimit="10" stroke-linecap="round" stroke-linejoin="round"/>
<path opacity="0.49" d="M797.028 530.655C797.028 534.894 793.58 538.342 789.34 538.342C785.101 538.342 781.653 534.894 781.653 530.655C781.653 526.416 785.101 522.968 789.34 522.968C793.58 522.968 797.028 526.416 797.028 530.655Z" stroke="white" stroke-width="2" stroke-miterlimit="10" stroke-linecap="round" stroke-linejoin="round"/>
<path opacity="0.49" d="M556.655 150.879C556.655 155.118 553.208 158.566 548.968 158.566C544.729 158.566 541.281 155.118 541.281 150.879C541.281 146.64 544.729 143.192 548.968 143.192C553.226 143.192 556.655 146.621 556.655 150.879Z" stroke="white" stroke-width="2" stroke-miterlimit="10" stroke-linecap="round" stroke-linejoin="round"/>
<path opacity="0.49" d="M16.3742 401.331C16.3742 405.57 12.9263 409.018 8.68709 409.018C4.44789 409.018 1 405.57 1 401.331C1 397.092 4.44789 393.644 8.68709 393.644C12.9451 393.644 16.3742 397.092 16.3742 401.331Z" stroke="white" stroke-width="2" stroke-miterlimit="10" stroke-linecap="round" stroke-linejoin="round"/>
<path opacity="0.49" d="M94.1872 176.07C94.1872 180.309 90.7393 183.757 86.5001 183.757C82.2609 183.757 78.813 180.309 78.813 176.07C78.813 171.83 82.2609 168.382 86.5001 168.382C90.7393 168.382 94.1872 171.83 94.1872 176.07Z" stroke="white" stroke-width="2" stroke-miterlimit="10" stroke-linecap="round" stroke-linejoin="round"/>
<g opacity="0.49">
<path opacity="0.49" d="M700.148 74.5359V87.9884" stroke="white" stroke-width="2" stroke-miterlimit="10" stroke-linecap="round" stroke-linejoin="round"/>
<path opacity="0.49" d="M706.874 81.2622H693.44" stroke="white" stroke-width="2" stroke-miterlimit="10" stroke-linecap="round" stroke-linejoin="round"/>
</g>
<g opacity="0.49">
<path opacity="0.49" d="M1265.45 523.948V537.381" stroke="white" stroke-width="2" stroke-miterlimit="10" stroke-linecap="round" stroke-linejoin="round"/>
<path opacity="0.49" d="M1272.18 530.655H1258.74" stroke="white" stroke-width="2" stroke-miterlimit="10" stroke-linecap="round" stroke-linejoin="round"/>
</g>
<g opacity="0.49">
<path opacity="0.49" d="M317.207 402.236V415.669" stroke="white" stroke-width="2" stroke-miterlimit="10" stroke-linecap="round" stroke-linejoin="round"/>
<path opacity="0.49" d="M323.933 408.943H310.499" stroke="white" stroke-width="2" stroke-miterlimit="10" stroke-linecap="round" stroke-linejoin="round"/>
</g>
<g opacity="0.49">
<g opacity="0.49">
<path opacity="0.49" d="M1004.22 684.623V698.056" stroke="white" stroke-width="2" stroke-miterlimit="10" stroke-linecap="round" stroke-linejoin="round"/>
<path opacity="0.49" d="M1010.93 691.33H997.495" stroke="white" stroke-width="2" stroke-miterlimit="10" stroke-linecap="round" stroke-linejoin="round"/>
</g>
<g opacity="0.49">
<path opacity="0.49" d="M963.6 684.623V698.056" stroke="white" stroke-width="2" stroke-miterlimit="10" stroke-linecap="round" stroke-linejoin="round"/>
<path opacity="0.49" d="M970.307 691.33H956.874" stroke="white" stroke-width="2" stroke-miterlimit="10" stroke-linecap="round" stroke-linejoin="round"/>
</g>
<g opacity="0.49">
<path opacity="0.49" d="M922.979 684.623V698.056" stroke="white" stroke-width="2" stroke-miterlimit="10" stroke-linecap="round" stroke-linejoin="round"/>
<path opacity="0.49" d="M929.686 691.33H916.253" stroke="white" stroke-width="2" stroke-miterlimit="10" stroke-linecap="round" stroke-linejoin="round"/>
</g>
</g>
<g opacity="0.49">
<g opacity="0.49">
<path opacity="0.49" d="M94.1868 83.5985V97.032" stroke="white" stroke-width="2" stroke-miterlimit="10" stroke-linecap="round" stroke-linejoin="round"/>
<path opacity="0.49" d="M100.894 90.3246H87.4607" stroke="white" stroke-width="2" stroke-miterlimit="10" stroke-linecap="round" stroke-linejoin="round"/>
</g>
<g opacity="0.49">
<path opacity="0.49" d="M53.5662 83.5985V97.032" stroke="white" stroke-width="2" stroke-miterlimit="10" stroke-linecap="round" stroke-linejoin="round"/>
<path opacity="0.49" d="M60.2925 90.3246H46.8401" stroke="white" stroke-width="2" stroke-miterlimit="10" stroke-linecap="round" stroke-linejoin="round"/>
</g>
<g opacity="0.49">
<path opacity="0.49" d="M12.9453 83.5985V97.032" stroke="white" stroke-width="2" stroke-miterlimit="10" stroke-linecap="round" stroke-linejoin="round"/>
<path opacity="0.49" d="M19.6714 90.3246H6.23779" stroke="white" stroke-width="2" stroke-miterlimit="10" stroke-linecap="round" stroke-linejoin="round"/>
</g>
</g>
<path opacity="0.49" d="M476.959 363.386L487.415 345.28H466.502L476.959 363.386Z" stroke="white" stroke-width="2" stroke-miterlimit="10" stroke-linecap="round" stroke-linejoin="round"/>
<path opacity="0.49" d="M1047.03 237.988L1036.58 256.094H1057.49L1047.03 237.988Z" stroke="white" stroke-width="2" stroke-miterlimit="10" stroke-linecap="round" stroke-linejoin="round"/>
<path opacity="0.49" d="M460.718 637.69C465.277 633.131 473.266 641.119 477.825 636.56C482.385 632 474.396 624.012 478.956 619.452C483.515 614.893 491.504 622.881 496.063 618.322C500.623 613.762 492.634 605.774 497.175 601.214C501.734 596.655 509.723 604.643 514.282 600.084C518.842 595.524 510.853 587.536 515.413 582.957C519.972 578.398 527.961 586.386 532.539 581.827" stroke="white" stroke-width="2" stroke-miterlimit="10" stroke-linecap="round" stroke-linejoin="round"/>
<path opacity="0.49" d="M857.865 600.442C862.424 595.882 870.413 603.871 874.973 599.311C879.532 594.752 871.543 586.763 876.103 582.204C880.662 577.644 888.651 585.633 893.211 581.073C897.77 576.514 889.781 568.525 894.322 563.966C898.882 559.406 906.87 567.395 911.43 562.835C915.989 558.276 908.001 550.287 912.56 545.709C917.12 541.149 925.108 549.138 929.686 544.579" stroke="white" stroke-width="2" stroke-miterlimit="10" stroke-linecap="round" stroke-linejoin="round"/>
<path opacity="0.49" d="M950.342 233.259C954.901 228.7 962.89 236.688 967.449 232.129C972.009 227.569 964.02 219.581 968.58 215.021C973.139 210.462 981.128 218.45 985.687 213.891C990.247 209.331 982.258 201.343 986.799 196.783C991.358 192.224 999.347 200.212 1003.91 195.653C1008.47 191.093 1000.48 183.105 1005.04 178.527C1009.6 173.967 1017.58 181.956 1022.16 177.396" stroke="white" stroke-width="2" stroke-miterlimit="10" stroke-linecap="round" stroke-linejoin="round"/>
</g>
</svg>
