<svg width="104" height="300" viewBox="0 0 104 300" fill="none" xmlns="http://www.w3.org/2000/svg">
<circle cx="2" cy="2" r="2" fill="#F19FE4" fill-opacity="0.1"/>
<circle cx="12" cy="2" r="2" fill="#F19FE4" fill-opacity="0.1"/>
<circle cx="22" cy="2" r="2" fill="#F19FE4" fill-opacity="0.1"/>
<circle cx="32" cy="2" r="2" fill="#F19FE4" fill-opacity="0.1"/>
<circle cx="42" cy="2" r="2" fill="#F19FE4" fill-opacity="0.1"/>
<circle cx="52" cy="2" r="2" fill="#F19FE4" fill-opacity="0.1"/>
<circle cx="62" cy="2" r="2" fill="#F19FE4" fill-opacity="0.1"/>
<circle cx="72" cy="2" r="2" fill="#F19FE4" fill-opacity="0.1"/>
<circle cx="82" cy="2" r="2" fill="#F19FE4" fill-opacity="0.1"/>
<circle cx="92" cy="2" r="2" fill="#F19FE4" fill-opacity="0.1"/>
<circle cx="102" cy="2" r="2" fill="#F19FE4" fill-opacity="0.1"/>
<circle cx="2" cy="12" r="2" fill="#F19FE4" fill-opacity="0.1"/>
<circle cx="12" cy="12" r="2" fill="#F19FE4" fill-opacity="0.1"/>
<circle cx="22" cy="12" r="2" fill="#F19FE4" fill-opacity="0.1"/>
<circle cx="32" cy="12" r="2" fill="#F19FE4" fill-opacity="0.1"/>
<circle cx="42" cy="12" r="2" fill="#F19FE4" fill-opacity="0.1"/>
<circle cx="52" cy="12" r="2" fill="#F19FE4" fill-opacity="0.1"/>
<circle cx="62" cy="12" r="2" fill="#F19FE4" fill-opacity="0.1"/>
<circle cx="72" cy="12" r="2" fill="#F19FE4" fill-opacity="0.1"/>
<circle cx="82" cy="12" r="2" fill="#F19FE4" fill-opacity="0.1"/>
<circle cx="92" cy="12" r="2" fill="#F19FE4" fill-opacity="0.1"/>
<circle cx="102" cy="12" r="2" fill="#F19FE4" fill-opacity="0.1"/>
<circle cx="2" cy="22" r="2" fill="#F19FE4" fill-opacity="0.1"/>
<circle cx="12" cy="22" r="2" fill="#F19FE4" fill-opacity="0.1"/>
<circle cx="22" cy="22" r="2" fill="#F19FE4" fill-opacity="0.1"/>
<circle cx="32" cy="22" r="2" fill="#F19FE4" fill-opacity="0.1"/>
<circle cx="42" cy="22" r="2" fill="#F19FE4" fill-opacity="0.1"/>
<circle cx="52" cy="22" r="2" fill="#F19FE4" fill-opacity="0.1"/>
<circle cx="62" cy="22" r="2" fill="#F19FE4" fill-opacity="0.1"/>
<circle cx="72" cy="22" r="2" fill="#F19FE4" fill-opacity="0.1"/>
<circle cx="82" cy="22" r="2" fill="#F19FE4" fill-opacity="0.1"/>
<circle cx="92" cy="22" r="2" fill="#F19FE4" fill-opacity="0.1"/>
<circle cx="102" cy="22" r="2" fill="#F19FE4" fill-opacity="0.1"/>
<circle cx="2" cy="32" r="2" fill="#F19FE4" fill-opacity="0.1"/>
<circle cx="12" cy="32" r="2" fill="#F19FE4" fill-opacity="0.1"/>
<circle cx="22" cy="32" r="2" fill="#F19FE4" fill-opacity="0.1"/>
<circle cx="32" cy="32" r="2" fill="#F19FE4" fill-opacity="0.1"/>
<circle cx="42" cy="32" r="2" fill="#F19FE4" fill-opacity="0.1"/>
<circle cx="52" cy="32" r="2" fill="#F19FE4" fill-opacity="0.1"/>
<circle cx="62" cy="32" r="2" fill="#F19FE4" fill-opacity="0.1"/>
<circle cx="72" cy="32" r="2" fill="#F19FE4" fill-opacity="0.1"/>
<circle cx="82" cy="32" r="2" fill="#F19FE4" fill-opacity="0.1"/>
<circle cx="92" cy="32" r="2" fill="#F19FE4" fill-opacity="0.1"/>
<circle cx="102" cy="32" r="2" fill="#F19FE4" fill-opacity="0.1"/>
<circle cx="2" cy="42" r="2" fill="#F19FE4" fill-opacity="0.1"/>
<circle cx="12" cy="42" r="2" fill="#F19FE4" fill-opacity="0.1"/>
<circle cx="22" cy="42" r="2" fill="#F19FE4" fill-opacity="0.1"/>
<circle cx="32" cy="42" r="2" fill="#F19FE4" fill-opacity="0.1"/>
<circle cx="42" cy="42" r="2" fill="#F19FE4" fill-opacity="0.1"/>
<circle cx="52" cy="42" r="2" fill="#F19FE4" fill-opacity="0.1"/>
<circle cx="62" cy="42" r="2" fill="#F19FE4" fill-opacity="0.1"/>
<circle cx="72" cy="42" r="2" fill="#F19FE4" fill-opacity="0.1"/>
<circle cx="82" cy="42" r="2" fill="#F19FE4" fill-opacity="0.1"/>
<circle cx="92" cy="42" r="2" fill="#F19FE4" fill-opacity="0.1"/>
<circle cx="102" cy="42" r="2" fill="#F19FE4" fill-opacity="0.1"/>
<circle cx="2" cy="52" r="2" fill="#F19FE4" fill-opacity="0.1"/>
<circle cx="12" cy="52" r="2" fill="#F19FE4" fill-opacity="0.1"/>
<circle cx="22" cy="52" r="2" fill="#F19FE4" fill-opacity="0.1"/>
<circle cx="32" cy="52" r="2" fill="#F19FE4" fill-opacity="0.1"/>
<circle cx="42" cy="52" r="2" fill="#F19FE4" fill-opacity="0.1"/>
<circle cx="52" cy="52" r="2" fill="#F19FE4" fill-opacity="0.1"/>
<circle cx="62" cy="52" r="2" fill="#F19FE4" fill-opacity="0.1"/>
<circle cx="72" cy="52" r="2" fill="#F19FE4" fill-opacity="0.1"/>
<circle cx="82" cy="52" r="2" fill="#F19FE4" fill-opacity="0.1"/>
<circle cx="92" cy="52" r="2" fill="#F19FE4" fill-opacity="0.1"/>
<circle cx="102" cy="52" r="2" fill="#F19FE4" fill-opacity="0.1"/>
<circle cx="2" cy="62" r="2" fill="#F19FE4" fill-opacity="0.1"/>
<circle cx="12" cy="62" r="2" fill="#F19FE4" fill-opacity="0.1"/>
<circle cx="22" cy="62" r="2" fill="#F19FE4" fill-opacity="0.1"/>
<circle cx="32" cy="62" r="2" fill="#F19FE4" fill-opacity="0.1"/>
<circle cx="42" cy="62" r="2" fill="#F19FE4" fill-opacity="0.1"/>
<circle cx="52" cy="62" r="2" fill="#F19FE4" fill-opacity="0.1"/>
<circle cx="62" cy="62" r="2" fill="#F19FE4" fill-opacity="0.1"/>
<circle cx="72" cy="62" r="2" fill="#F19FE4" fill-opacity="0.1"/>
<circle cx="82" cy="62" r="2" fill="#F19FE4" fill-opacity="0.1"/>
<circle cx="92" cy="62" r="2" fill="#F19FE4" fill-opacity="0.1"/>
<circle cx="102" cy="62" r="2" fill="#F19FE4" fill-opacity="0.1"/>
<circle cx="2" cy="72" r="2" fill="#F19FE4" fill-opacity="0.1"/>
<circle cx="12" cy="72" r="2" fill="#F19FE4" fill-opacity="0.1"/>
<circle cx="22" cy="72" r="2" fill="#F19FE4" fill-opacity="0.1"/>
<circle cx="32" cy="72" r="2" fill="#F19FE4" fill-opacity="0.1"/>
<circle cx="42" cy="72" r="2" fill="#F19FE4" fill-opacity="0.1"/>
<circle cx="52" cy="72" r="2" fill="#F19FE4" fill-opacity="0.1"/>
<circle cx="62" cy="72" r="2" fill="#F19FE4" fill-opacity="0.1"/>
<circle cx="72" cy="72" r="2" fill="#F19FE4" fill-opacity="0.1"/>
<circle cx="82" cy="72" r="2" fill="#F19FE4" fill-opacity="0.1"/>
<circle cx="92" cy="72" r="2" fill="#F19FE4" fill-opacity="0.1"/>
<circle cx="102" cy="72" r="2" fill="#F19FE4" fill-opacity="0.1"/>
<circle cx="2" cy="82" r="2" fill="#F19FE4" fill-opacity="0.1"/>
<circle cx="12" cy="82" r="2" fill="#F19FE4" fill-opacity="0.1"/>
<circle cx="22" cy="82" r="2" fill="#F19FE4" fill-opacity="0.1"/>
<circle cx="32" cy="82" r="2" fill="#F19FE4" fill-opacity="0.1"/>
<circle cx="42" cy="82" r="2" fill="#F19FE4" fill-opacity="0.1"/>
<circle cx="52" cy="82" r="2" fill="#F19FE4" fill-opacity="0.1"/>
<circle cx="62" cy="82" r="2" fill="#F19FE4" fill-opacity="0.1"/>
<circle cx="72" cy="82" r="2" fill="#F19FE4" fill-opacity="0.1"/>
<circle cx="82" cy="82" r="2" fill="#F19FE4" fill-opacity="0.1"/>
<circle cx="92" cy="82" r="2" fill="#F19FE4" fill-opacity="0.1"/>
<circle cx="102" cy="82" r="2" fill="#F19FE4" fill-opacity="0.1"/>
<circle cx="2" cy="92" r="2" fill="#F19FE4" fill-opacity="0.1"/>
<circle cx="12" cy="92" r="2" fill="#F19FE4" fill-opacity="0.1"/>
<circle cx="22" cy="92" r="2" fill="#F19FE4" fill-opacity="0.1"/>
<circle cx="32" cy="92" r="2" fill="#F19FE4" fill-opacity="0.1"/>
<circle cx="42" cy="92" r="2" fill="#F19FE4" fill-opacity="0.1"/>
<circle cx="52" cy="92" r="2" fill="#F19FE4" fill-opacity="0.1"/>
<circle cx="62" cy="92" r="2" fill="#F19FE4" fill-opacity="0.1"/>
<circle cx="72" cy="92" r="2" fill="#F19FE4" fill-opacity="0.1"/>
<circle cx="82" cy="92" r="2" fill="#F19FE4" fill-opacity="0.1"/>
<circle cx="92" cy="92" r="2" fill="#F19FE4" fill-opacity="0.1"/>
<circle cx="102" cy="92" r="2" fill="#F19FE4" fill-opacity="0.1"/>
<circle cx="2" cy="102" r="2" fill="#F19FE4" fill-opacity="0.1"/>
<circle cx="12" cy="102" r="2" fill="#F19FE4" fill-opacity="0.1"/>
<circle cx="22" cy="102" r="2" fill="#F19FE4" fill-opacity="0.1"/>
<circle cx="32" cy="102" r="2" fill="#F19FE4" fill-opacity="0.1"/>
<circle cx="42" cy="102" r="2" fill="#F19FE4" fill-opacity="0.1"/>
<circle cx="52" cy="102" r="2" fill="#F19FE4" fill-opacity="0.1"/>
<circle cx="62" cy="102" r="2" fill="#F19FE4" fill-opacity="0.1"/>
<circle cx="72" cy="102" r="2" fill="#F19FE4" fill-opacity="0.1"/>
<circle cx="82" cy="102" r="2" fill="#F19FE4" fill-opacity="0.1"/>
<circle cx="92" cy="102" r="2" fill="#F19FE4" fill-opacity="0.1"/>
<circle cx="102" cy="102" r="2" fill="#F19FE4" fill-opacity="0.1"/>
<circle cx="2" cy="112" r="2" fill="#F19FE4" fill-opacity="0.1"/>
<circle cx="12" cy="112" r="2" fill="#F19FE4" fill-opacity="0.1"/>
<circle cx="22" cy="112" r="2" fill="#F19FE4" fill-opacity="0.1"/>
<circle cx="32" cy="112" r="2" fill="#F19FE4" fill-opacity="0.1"/>
<circle cx="42" cy="112" r="2" fill="#F19FE4" fill-opacity="0.1"/>
<circle cx="52" cy="112" r="2" fill="#F19FE4" fill-opacity="0.1"/>
<circle cx="62" cy="112" r="2" fill="#F19FE4" fill-opacity="0.1"/>
<circle cx="72" cy="112" r="2" fill="#F19FE4" fill-opacity="0.1"/>
<circle cx="82" cy="112" r="2" fill="#F19FE4" fill-opacity="0.1"/>
<circle cx="92" cy="112" r="2" fill="#F19FE4" fill-opacity="0.1"/>
<circle cx="102" cy="112" r="2" fill="#F19FE4" fill-opacity="0.1"/>
<circle cx="2" cy="122" r="2" fill="#F19FE4" fill-opacity="0.1"/>
<circle cx="12" cy="122" r="2" fill="#F19FE4" fill-opacity="0.1"/>
<circle cx="22" cy="122" r="2" fill="#F19FE4" fill-opacity="0.1"/>
<circle cx="32" cy="122" r="2" fill="#F19FE4" fill-opacity="0.1"/>
<circle cx="42" cy="122" r="2" fill="#F19FE4" fill-opacity="0.1"/>
<circle cx="52" cy="122" r="2" fill="#F19FE4" fill-opacity="0.1"/>
<circle cx="62" cy="122" r="2" fill="#F19FE4" fill-opacity="0.1"/>
<circle cx="72" cy="122" r="2" fill="#F19FE4" fill-opacity="0.1"/>
<circle cx="82" cy="122" r="2" fill="#F19FE4" fill-opacity="0.1"/>
<circle cx="92" cy="122" r="2" fill="#F19FE4" fill-opacity="0.1"/>
<circle cx="102" cy="122" r="2" fill="#F19FE4" fill-opacity="0.1"/>
<circle cx="2" cy="132" r="2" fill="#F19FE4" fill-opacity="0.1"/>
<circle cx="12" cy="132" r="2" fill="#F19FE4" fill-opacity="0.1"/>
<circle cx="22" cy="132" r="2" fill="#F19FE4" fill-opacity="0.1"/>
<circle cx="32" cy="132" r="2" fill="#F19FE4" fill-opacity="0.1"/>
<circle cx="42" cy="132" r="2" fill="#F19FE4" fill-opacity="0.1"/>
<circle cx="52" cy="132" r="2" fill="#F19FE4" fill-opacity="0.1"/>
<circle cx="62" cy="132" r="2" fill="#F19FE4" fill-opacity="0.1"/>
<circle cx="72" cy="132" r="2" fill="#F19FE4" fill-opacity="0.1"/>
<circle cx="82" cy="132" r="2" fill="#F19FE4" fill-opacity="0.1"/>
<circle cx="92" cy="132" r="2" fill="#F19FE4" fill-opacity="0.1"/>
<circle cx="102" cy="132" r="2" fill="#F19FE4" fill-opacity="0.1"/>
<circle cx="2" cy="142" r="2" fill="#F19FE4" fill-opacity="0.1"/>
<circle cx="12" cy="142" r="2" fill="#F19FE4" fill-opacity="0.1"/>
<circle cx="22" cy="142" r="2" fill="#F19FE4" fill-opacity="0.1"/>
<circle cx="32" cy="142" r="2" fill="#F19FE4" fill-opacity="0.1"/>
<circle cx="42" cy="142" r="2" fill="#F19FE4" fill-opacity="0.1"/>
<circle cx="52" cy="142" r="2" fill="#F19FE4" fill-opacity="0.1"/>
<circle cx="62" cy="142" r="2" fill="#F19FE4" fill-opacity="0.1"/>
<circle cx="72" cy="142" r="2" fill="#F19FE4" fill-opacity="0.1"/>
<circle cx="82" cy="142" r="2" fill="#F19FE4" fill-opacity="0.1"/>
<circle cx="92" cy="142" r="2" fill="#F19FE4" fill-opacity="0.1"/>
<circle cx="102" cy="142" r="2" fill="#F19FE4" fill-opacity="0.1"/>
<circle cx="2" cy="152" r="2" fill="#F19FE4" fill-opacity="0.1"/>
<circle cx="12" cy="152" r="2" fill="#F19FE4" fill-opacity="0.1"/>
<circle cx="22" cy="152" r="2" fill="#F19FE4" fill-opacity="0.1"/>
<circle cx="32" cy="152" r="2" fill="#F19FE4" fill-opacity="0.1"/>
<circle cx="42" cy="152" r="2" fill="#F19FE4" fill-opacity="0.1"/>
<circle cx="52" cy="152" r="2" fill="#F19FE4" fill-opacity="0.1"/>
<circle cx="62" cy="152" r="2" fill="#F19FE4" fill-opacity="0.1"/>
<circle cx="72" cy="152" r="2" fill="#F19FE4" fill-opacity="0.1"/>
<circle cx="82" cy="152" r="2" fill="#F19FE4" fill-opacity="0.1"/>
<circle cx="92" cy="152" r="2" fill="#F19FE4" fill-opacity="0.1"/>
<circle cx="102" cy="152" r="2" fill="#F19FE4" fill-opacity="0.1"/>
<circle cx="2" cy="162" r="2" fill="#F19FE4" fill-opacity="0.1"/>
<circle cx="12" cy="162" r="2" fill="#F19FE4" fill-opacity="0.1"/>
<circle cx="22" cy="162" r="2" fill="#F19FE4" fill-opacity="0.1"/>
<circle cx="32" cy="162" r="2" fill="#F19FE4" fill-opacity="0.1"/>
<circle cx="42" cy="162" r="2" fill="#F19FE4" fill-opacity="0.1"/>
<circle cx="52" cy="162" r="2" fill="#F19FE4" fill-opacity="0.1"/>
<circle cx="62" cy="162" r="2" fill="#F19FE4" fill-opacity="0.1"/>
<circle cx="72" cy="162" r="2" fill="#F19FE4" fill-opacity="0.1"/>
<circle cx="82" cy="162" r="2" fill="#F19FE4" fill-opacity="0.1"/>
<circle cx="92" cy="162" r="2" fill="#F19FE4" fill-opacity="0.1"/>
<circle cx="102" cy="162" r="2" fill="#F19FE4" fill-opacity="0.1"/>
<circle cx="2" cy="172" r="2" fill="#F19FE4" fill-opacity="0.1"/>
<circle cx="12" cy="172" r="2" fill="#F19FE4" fill-opacity="0.1"/>
<circle cx="22" cy="172" r="2" fill="#F19FE4" fill-opacity="0.1"/>
<circle cx="32" cy="172" r="2" fill="#F19FE4" fill-opacity="0.1"/>
<circle cx="42" cy="172" r="2" fill="#F19FE4" fill-opacity="0.1"/>
<circle cx="52" cy="172" r="2" fill="#F19FE4" fill-opacity="0.1"/>
<circle cx="62" cy="172" r="2" fill="#F19FE4" fill-opacity="0.1"/>
<circle cx="72" cy="172" r="2" fill="#F19FE4" fill-opacity="0.1"/>
<circle cx="82" cy="172" r="2" fill="#F19FE4" fill-opacity="0.1"/>
<circle cx="92" cy="172" r="2" fill="#F19FE4" fill-opacity="0.1"/>
<circle cx="102" cy="172" r="2" fill="#F19FE4" fill-opacity="0.1"/>
<circle cx="2" cy="182" r="2" fill="#F19FE4" fill-opacity="0.1"/>
<circle cx="12" cy="182" r="2" fill="#F19FE4" fill-opacity="0.1"/>
<circle cx="22" cy="182" r="2" fill="#F19FE4" fill-opacity="0.1"/>
<circle cx="32" cy="182" r="2" fill="#F19FE4" fill-opacity="0.1"/>
<circle cx="42" cy="182" r="2" fill="#F19FE4" fill-opacity="0.1"/>
<circle cx="52" cy="182" r="2" fill="#F19FE4" fill-opacity="0.1"/>
<circle cx="62" cy="182" r="2" fill="#F19FE4" fill-opacity="0.1"/>
<circle cx="72" cy="182" r="2" fill="#F19FE4" fill-opacity="0.1"/>
<circle cx="82" cy="182" r="2" fill="#F19FE4" fill-opacity="0.1"/>
<circle cx="92" cy="182" r="2" fill="#F19FE4" fill-opacity="0.1"/>
<circle cx="102" cy="182" r="2" fill="#F19FE4" fill-opacity="0.1"/>
<circle cx="2" cy="192" r="2" fill="#F19FE4" fill-opacity="0.1"/>
<circle cx="12" cy="192" r="2" fill="#F19FE4" fill-opacity="0.1"/>
<circle cx="22" cy="192" r="2" fill="#F19FE4" fill-opacity="0.1"/>
<circle cx="32" cy="192" r="2" fill="#F19FE4" fill-opacity="0.1"/>
<circle cx="42" cy="192" r="2" fill="#F19FE4" fill-opacity="0.1"/>
<circle cx="52" cy="192" r="2" fill="#F19FE4" fill-opacity="0.1"/>
<circle cx="62" cy="192" r="2" fill="#F19FE4" fill-opacity="0.1"/>
<circle cx="72" cy="192" r="2" fill="#F19FE4" fill-opacity="0.1"/>
<circle cx="82" cy="192" r="2" fill="#F19FE4" fill-opacity="0.1"/>
<circle cx="92" cy="192" r="2" fill="#F19FE4" fill-opacity="0.1"/>
<circle cx="102" cy="192" r="2" fill="#F19FE4" fill-opacity="0.1"/>
<circle cx="2" cy="202" r="2" fill="#F19FE4" fill-opacity="0.1"/>
<circle cx="12" cy="202" r="2" fill="#F19FE4" fill-opacity="0.1"/>
<circle cx="22" cy="202" r="2" fill="#F19FE4" fill-opacity="0.1"/>
<circle cx="32" cy="202" r="2" fill="#F19FE4" fill-opacity="0.1"/>
<circle cx="42" cy="202" r="2" fill="#F19FE4" fill-opacity="0.1"/>
<circle cx="52" cy="202" r="2" fill="#F19FE4" fill-opacity="0.1"/>
<circle cx="62" cy="202" r="2" fill="#F19FE4" fill-opacity="0.1"/>
<circle cx="72" cy="202" r="2" fill="#F19FE4" fill-opacity="0.1"/>
<circle cx="82" cy="202" r="2" fill="#F19FE4" fill-opacity="0.1"/>
<circle cx="92" cy="202" r="2" fill="#F19FE4" fill-opacity="0.1"/>
<circle cx="102" cy="202" r="2" fill="#F19FE4" fill-opacity="0.1"/>
<circle cx="2" cy="212" r="2" fill="#F19FE4" fill-opacity="0.1"/>
<circle cx="12" cy="212" r="2" fill="#F19FE4" fill-opacity="0.1"/>
<circle cx="22" cy="212" r="2" fill="#F19FE4" fill-opacity="0.1"/>
<circle cx="32" cy="212" r="2" fill="#F19FE4" fill-opacity="0.1"/>
<circle cx="42" cy="212" r="2" fill="#F19FE4" fill-opacity="0.1"/>
<circle cx="52" cy="212" r="2" fill="#F19FE4" fill-opacity="0.1"/>
<circle cx="62" cy="212" r="2" fill="#F19FE4" fill-opacity="0.1"/>
<circle cx="72" cy="212" r="2" fill="#F19FE4" fill-opacity="0.1"/>
<circle cx="82" cy="212" r="2" fill="#F19FE4" fill-opacity="0.1"/>
<circle cx="92" cy="212" r="2" fill="#F19FE4" fill-opacity="0.1"/>
<circle cx="102" cy="212" r="2" fill="#F19FE4" fill-opacity="0.1"/>
<circle cx="2" cy="222" r="2" fill="#F19FE4" fill-opacity="0.1"/>
<circle cx="12" cy="222" r="2" fill="#F19FE4" fill-opacity="0.1"/>
<circle cx="22" cy="222" r="2" fill="#F19FE4" fill-opacity="0.1"/>
<circle cx="32" cy="222" r="2" fill="#F19FE4" fill-opacity="0.1"/>
<circle cx="42" cy="222" r="2" fill="#F19FE4" fill-opacity="0.1"/>
<circle cx="52" cy="222" r="2" fill="#F19FE4" fill-opacity="0.1"/>
<circle cx="62" cy="222" r="2" fill="#F19FE4" fill-opacity="0.1"/>
<circle cx="72" cy="222" r="2" fill="#F19FE4" fill-opacity="0.1"/>
<circle cx="82" cy="222" r="2" fill="#F19FE4" fill-opacity="0.1"/>
<circle cx="92" cy="222" r="2" fill="#F19FE4" fill-opacity="0.1"/>
<circle cx="102" cy="222" r="2" fill="#F19FE4" fill-opacity="0.1"/>
<circle cx="2" cy="232" r="2" fill="#F19FE4" fill-opacity="0.1"/>
<circle cx="12" cy="232" r="2" fill="#F19FE4" fill-opacity="0.1"/>
<circle cx="22" cy="232" r="2" fill="#F19FE4" fill-opacity="0.1"/>
<circle cx="32" cy="232" r="2" fill="#F19FE4" fill-opacity="0.1"/>
<circle cx="42" cy="232" r="2" fill="#F19FE4" fill-opacity="0.1"/>
<circle cx="52" cy="232" r="2" fill="#F19FE4" fill-opacity="0.1"/>
<circle cx="62" cy="232" r="2" fill="#F19FE4" fill-opacity="0.1"/>
<circle cx="72" cy="232" r="2" fill="#F19FE4" fill-opacity="0.1"/>
<circle cx="82" cy="232" r="2" fill="#F19FE4" fill-opacity="0.1"/>
<circle cx="92" cy="232" r="2" fill="#F19FE4" fill-opacity="0.1"/>
<circle cx="102" cy="232" r="2" fill="#F19FE4" fill-opacity="0.1"/>
<circle cx="2" cy="242" r="2" fill="#F19FE4" fill-opacity="0.1"/>
<circle cx="12" cy="242" r="2" fill="#F19FE4" fill-opacity="0.1"/>
<circle cx="22" cy="242" r="2" fill="#F19FE4" fill-opacity="0.1"/>
<circle cx="32" cy="242" r="2" fill="#F19FE4" fill-opacity="0.1"/>
<circle cx="42" cy="242" r="2" fill="#F19FE4" fill-opacity="0.1"/>
<circle cx="52" cy="242" r="2" fill="#F19FE4" fill-opacity="0.1"/>
<circle cx="62" cy="242" r="2" fill="#F19FE4" fill-opacity="0.1"/>
<circle cx="72" cy="242" r="2" fill="#F19FE4" fill-opacity="0.1"/>
<circle cx="82" cy="242" r="2" fill="#F19FE4" fill-opacity="0.1"/>
<circle cx="92" cy="242" r="2" fill="#F19FE4" fill-opacity="0.1"/>
<circle cx="102" cy="242" r="2" fill="#F19FE4" fill-opacity="0.1"/>
<circle cx="2" cy="252" r="2" fill="#F19FE4" fill-opacity="0.1"/>
<circle cx="12" cy="252" r="2" fill="#F19FE4" fill-opacity="0.1"/>
<circle cx="22" cy="252" r="2" fill="#F19FE4" fill-opacity="0.1"/>
<circle cx="32" cy="252" r="2" fill="#F19FE4" fill-opacity="0.1"/>
<circle cx="42" cy="252" r="2" fill="#F19FE4" fill-opacity="0.1"/>
<circle cx="52" cy="252" r="2" fill="#F19FE4" fill-opacity="0.1"/>
<circle cx="62" cy="252" r="2" fill="#F19FE4" fill-opacity="0.1"/>
<circle cx="72" cy="252" r="2" fill="#F19FE4" fill-opacity="0.1"/>
<circle cx="82" cy="252" r="2" fill="#F19FE4" fill-opacity="0.1"/>
<circle cx="92" cy="252" r="2" fill="#F19FE4" fill-opacity="0.1"/>
<circle cx="102" cy="252" r="2" fill="#F19FE4" fill-opacity="0.1"/>
<circle cx="2" cy="262" r="2" fill="#F19FE4" fill-opacity="0.1"/>
<circle cx="12" cy="262" r="2" fill="#F19FE4" fill-opacity="0.1"/>
<circle cx="22" cy="262" r="2" fill="#F19FE4" fill-opacity="0.1"/>
<circle cx="32" cy="262" r="2" fill="#F19FE4" fill-opacity="0.1"/>
<circle cx="42" cy="262" r="2" fill="#F19FE4" fill-opacity="0.1"/>
<circle cx="52" cy="262" r="2" fill="#F19FE4" fill-opacity="0.1"/>
<circle cx="62" cy="262" r="2" fill="#F19FE4" fill-opacity="0.1"/>
<circle cx="72" cy="262" r="2" fill="#F19FE4" fill-opacity="0.1"/>
<circle cx="82" cy="262" r="2" fill="#F19FE4" fill-opacity="0.1"/>
<circle cx="92" cy="262" r="2" fill="#F19FE4" fill-opacity="0.1"/>
<circle cx="102" cy="262" r="2" fill="#F19FE4" fill-opacity="0.1"/>
<circle cx="2" cy="272" r="2" fill="#F19FE4" fill-opacity="0.1"/>
<circle cx="12" cy="272" r="2" fill="#F19FE4" fill-opacity="0.1"/>
<circle cx="22" cy="272" r="2" fill="#F19FE4" fill-opacity="0.1"/>
<circle cx="32" cy="272" r="2" fill="#F19FE4" fill-opacity="0.1"/>
<circle cx="42" cy="272" r="2" fill="#F19FE4" fill-opacity="0.1"/>
<circle cx="52" cy="272" r="2" fill="#F19FE4" fill-opacity="0.1"/>
<circle cx="62" cy="272" r="2" fill="#F19FE4" fill-opacity="0.1"/>
<circle cx="72" cy="272" r="2" fill="#F19FE4" fill-opacity="0.1"/>
<circle cx="82" cy="272" r="2" fill="#F19FE4" fill-opacity="0.1"/>
<circle cx="92" cy="272" r="2" fill="#F19FE4" fill-opacity="0.1"/>
<circle cx="102" cy="272" r="2" fill="#F19FE4" fill-opacity="0.1"/>
<circle cx="2" cy="282" r="2" fill="#F19FE4" fill-opacity="0.1"/>
<circle cx="12" cy="282" r="2" fill="#F19FE4" fill-opacity="0.1"/>
<circle cx="22" cy="282" r="2" fill="#F19FE4" fill-opacity="0.1"/>
<circle cx="32" cy="282" r="2" fill="#F19FE4" fill-opacity="0.1"/>
<circle cx="42" cy="282" r="2" fill="#F19FE4" fill-opacity="0.1"/>
<circle cx="52" cy="282" r="2" fill="#F19FE4" fill-opacity="0.1"/>
<circle cx="62" cy="282" r="2" fill="#F19FE4" fill-opacity="0.1"/>
<circle cx="72" cy="282" r="2" fill="#F19FE4" fill-opacity="0.1"/>
<circle cx="82" cy="282" r="2" fill="#F19FE4" fill-opacity="0.1"/>
<circle cx="92" cy="282" r="2" fill="#F19FE4" fill-opacity="0.1"/>
<circle cx="102" cy="282" r="2" fill="#F19FE4" fill-opacity="0.1"/>
<circle cx="2" cy="292" r="2" fill="#F19FE4" fill-opacity="0.1"/>
<circle cx="12" cy="292" r="2" fill="#F19FE4" fill-opacity="0.1"/>
<circle cx="22" cy="292" r="2" fill="#F19FE4" fill-opacity="0.1"/>
<circle cx="32" cy="292" r="2" fill="#F19FE4" fill-opacity="0.1"/>
<circle cx="42" cy="292" r="2" fill="#F19FE4" fill-opacity="0.1"/>
<circle cx="52" cy="292" r="2" fill="#F19FE4" fill-opacity="0.1"/>
<circle cx="62" cy="292" r="2" fill="#F19FE4" fill-opacity="0.1"/>
<circle cx="72" cy="292" r="2" fill="#F19FE4" fill-opacity="0.1"/>
<circle cx="82" cy="292" r="2" fill="#F19FE4" fill-opacity="0.1"/>
<circle cx="92" cy="292" r="2" fill="#F19FE4" fill-opacity="0.1"/>
<circle cx="102" cy="292" r="2" fill="#F19FE4" fill-opacity="0.1"/>
</svg>
